<svg width="500" height="500" viewBox="0 0 500 500" fill="none" xmlns="http://www.w3.org/2000/svg">
<rect width="500" height="500" fill="#F5F5F5"/>
<circle cx="250" cy="250" r="250" fill="url(#paint0_linear_0_1)"/>
<path d="M310.959 219.72C330.551 179.532 289.887 121.22 267.106 97.0874L231.796 172.44V266.262C250.021 267.493 291.368 259.908 310.959 219.72Z" fill="#F4F4F4" stroke="#F4F4F4" stroke-width="25" stroke-linecap="round" stroke-linejoin="round"/>
<mask id="path-3-outside-1_0_1" maskUnits="userSpaceOnUse" x="108.119" y="66.7436" width="279" height="368" fill="black">
<rect fill="white" x="108.119" y="66.7436" width="279" height="368"/>
<path fill-rule="evenodd" clip-rule="evenodd" d="M344.113 102.132C354.591 112.326 362.095 124.927 366.626 139.935C371.156 154.66 372.714 170.093 371.298 186.234C370.165 202.091 366.059 217.807 358.98 233.382C351.901 248.673 341.99 262.123 329.247 273.733C319.619 281.945 308.292 289.166 295.267 295.396C282.524 301.342 267.657 304.882 250.667 306.015C245.853 306.015 242.172 305.732 239.623 305.165C237.358 304.316 235.801 303.891 234.951 303.891C234.102 303.891 232.261 304.316 229.429 305.165C226.881 305.732 224.474 306.015 222.208 306.015C220.509 306.015 219.094 306.298 217.961 306.864C217.395 307.147 216.97 307.289 216.687 307.289C214.704 319.182 212.864 329.801 211.165 339.146C209.749 347.358 208.192 355.145 206.493 362.507C206.381 363.087 206.272 363.651 206.166 364.199H300.364C307.268 364.199 312.864 369.796 312.864 376.699C312.864 383.603 307.268 389.199 300.364 389.199H297.682C302.045 392.142 304.915 397.132 304.915 402.791C304.915 411.84 297.58 419.175 288.532 419.175C279.483 419.175 272.148 411.84 272.148 402.791C272.148 397.132 275.018 392.142 279.381 389.199H172.075C176.439 392.142 179.308 397.132 179.308 402.791C179.308 411.84 171.973 419.175 162.925 419.175C153.876 419.175 146.541 411.84 146.541 402.791C146.541 397.132 149.411 392.142 153.775 389.199H151.396C144.492 389.199 138.896 383.603 138.896 376.699C138.896 373.726 139.934 370.995 141.667 368.849C141.453 366.455 141.682 361.226 142.354 353.163C143.204 342.685 144.903 329.801 147.451 314.51C150 299.219 153.256 282.512 157.221 264.389C161.468 245.983 166.565 228.001 172.512 210.445C176.117 201.174 178.903 192.605 180.869 184.74C178.916 182.534 177.731 179.634 177.731 176.456V111.286H135.619C128.715 111.286 123.119 105.69 123.119 98.7864C123.119 91.8829 128.715 86.2864 135.619 86.2864H190.231C194.475 86.2864 198.225 88.4019 200.485 91.636C200.967 90.7045 201.836 90.2388 203.094 90.2388C204.51 88.8229 205.926 87.9734 207.342 87.6902C209.041 87.1239 210.598 86.5575 212.014 85.9912C213.43 85.708 214.704 85.4248 215.837 85.1417C219.518 85.708 222.35 85.8496 224.332 85.5664C226.598 85.0001 228.721 84.4337 230.704 83.8674C232.969 83.3011 235.376 82.8763 237.924 82.5931C240.473 82.31 243.871 82.5931 248.119 83.4426C248.968 82.5931 250.809 82.5931 253.64 83.4426C256.472 84.009 262.136 83.4427 270.631 81.7436H292.293C303.62 83.4427 313.389 85.8496 321.601 88.9645C329.813 91.7962 337.317 96.1853 344.113 102.132ZM305.885 191.755C308.151 180.995 308.717 170.376 307.584 159.899C306.735 150.837 304.045 141.493 299.514 131.865C295.267 122.237 287.621 114.025 276.577 107.229C273.746 105.53 271.48 104.822 269.781 105.105C268.082 105.105 266.808 104.68 265.958 103.831C265.958 104.68 265.817 105.672 265.534 106.804C265.25 107.654 264.967 108.645 264.684 109.778C264.401 110.627 264.118 111.335 263.835 111.901C263.835 112.751 263.551 114.45 262.985 116.998C262.702 119.264 262.136 121.812 261.286 124.644C260.437 127.476 259.587 130.166 258.738 132.714L256.614 139.086C256.331 140.785 255.764 143.192 254.915 146.307C254.348 149.421 253.64 152.819 252.791 156.501C251.941 159.899 251.092 163.155 250.242 166.27C249.676 169.385 249.393 171.792 249.393 173.491C249.676 175.19 249.534 177.455 248.968 180.287C248.685 182.836 248.119 185.526 247.269 188.357C246.703 191.189 245.995 193.879 245.145 196.428C244.296 198.976 243.588 200.817 243.022 201.95C242.455 202.799 241.464 205.489 240.048 210.02C238.916 214.551 237.5 219.931 235.801 226.161C234.385 232.39 232.827 239.045 231.128 246.124C229.429 253.203 227.872 259.858 226.456 266.088C225.323 272.317 224.474 277.556 223.908 281.804C223.341 286.051 223.2 288.458 223.483 289.025C224.615 289.025 228.58 287.609 235.376 284.777C242.455 281.945 250.384 276.99 259.162 269.911C267.941 262.548 276.719 252.637 285.497 240.178C294.275 227.435 301.072 211.294 305.885 191.755Z"/>
</mask>
<path fill-rule="evenodd" clip-rule="evenodd" d="M344.113 102.132C354.591 112.326 362.095 124.927 366.626 139.935C371.156 154.66 372.714 170.093 371.298 186.234C370.165 202.091 366.059 217.807 358.98 233.382C351.901 248.673 341.99 262.123 329.247 273.733C319.619 281.945 308.292 289.166 295.267 295.396C282.524 301.342 267.657 304.882 250.667 306.015C245.853 306.015 242.172 305.732 239.623 305.165C237.358 304.316 235.801 303.891 234.951 303.891C234.102 303.891 232.261 304.316 229.429 305.165C226.881 305.732 224.474 306.015 222.208 306.015C220.509 306.015 219.094 306.298 217.961 306.864C217.395 307.147 216.97 307.289 216.687 307.289C214.704 319.182 212.864 329.801 211.165 339.146C209.749 347.358 208.192 355.145 206.493 362.507C206.381 363.087 206.272 363.651 206.166 364.199H300.364C307.268 364.199 312.864 369.796 312.864 376.699C312.864 383.603 307.268 389.199 300.364 389.199H297.682C302.045 392.142 304.915 397.132 304.915 402.791C304.915 411.84 297.58 419.175 288.532 419.175C279.483 419.175 272.148 411.84 272.148 402.791C272.148 397.132 275.018 392.142 279.381 389.199H172.075C176.439 392.142 179.308 397.132 179.308 402.791C179.308 411.84 171.973 419.175 162.925 419.175C153.876 419.175 146.541 411.84 146.541 402.791C146.541 397.132 149.411 392.142 153.775 389.199H151.396C144.492 389.199 138.896 383.603 138.896 376.699C138.896 373.726 139.934 370.995 141.667 368.849C141.453 366.455 141.682 361.226 142.354 353.163C143.204 342.685 144.903 329.801 147.451 314.51C150 299.219 153.256 282.512 157.221 264.389C161.468 245.983 166.565 228.001 172.512 210.445C176.117 201.174 178.903 192.605 180.869 184.74C178.916 182.534 177.731 179.634 177.731 176.456V111.286H135.619C128.715 111.286 123.119 105.69 123.119 98.7864C123.119 91.8829 128.715 86.2864 135.619 86.2864H190.231C194.475 86.2864 198.225 88.4019 200.485 91.636C200.967 90.7045 201.836 90.2388 203.094 90.2388C204.51 88.8229 205.926 87.9734 207.342 87.6902C209.041 87.1239 210.598 86.5575 212.014 85.9912C213.43 85.708 214.704 85.4248 215.837 85.1417C219.518 85.708 222.35 85.8496 224.332 85.5664C226.598 85.0001 228.721 84.4337 230.704 83.8674C232.969 83.3011 235.376 82.8763 237.924 82.5931C240.473 82.31 243.871 82.5931 248.119 83.4426C248.968 82.5931 250.809 82.5931 253.64 83.4426C256.472 84.009 262.136 83.4427 270.631 81.7436H292.293C303.62 83.4427 313.389 85.8496 321.601 88.9645C329.813 91.7962 337.317 96.1853 344.113 102.132ZM305.885 191.755C308.151 180.995 308.717 170.376 307.584 159.899C306.735 150.837 304.045 141.493 299.514 131.865C295.267 122.237 287.621 114.025 276.577 107.229C273.746 105.53 271.48 104.822 269.781 105.105C268.082 105.105 266.808 104.68 265.958 103.831C265.958 104.68 265.817 105.672 265.534 106.804C265.25 107.654 264.967 108.645 264.684 109.778C264.401 110.627 264.118 111.335 263.835 111.901C263.835 112.751 263.551 114.45 262.985 116.998C262.702 119.264 262.136 121.812 261.286 124.644C260.437 127.476 259.587 130.166 258.738 132.714L256.614 139.086C256.331 140.785 255.764 143.192 254.915 146.307C254.348 149.421 253.64 152.819 252.791 156.501C251.941 159.899 251.092 163.155 250.242 166.27C249.676 169.385 249.393 171.792 249.393 173.491C249.676 175.19 249.534 177.455 248.968 180.287C248.685 182.836 248.119 185.526 247.269 188.357C246.703 191.189 245.995 193.879 245.145 196.428C244.296 198.976 243.588 200.817 243.022 201.95C242.455 202.799 241.464 205.489 240.048 210.02C238.916 214.551 237.5 219.931 235.801 226.161C234.385 232.39 232.827 239.045 231.128 246.124C229.429 253.203 227.872 259.858 226.456 266.088C225.323 272.317 224.474 277.556 223.908 281.804C223.341 286.051 223.2 288.458 223.483 289.025C224.615 289.025 228.58 287.609 235.376 284.777C242.455 281.945 250.384 276.99 259.162 269.911C267.941 262.548 276.719 252.637 285.497 240.178C294.275 227.435 301.072 211.294 305.885 191.755Z" fill="#00749C"/>
<path d="M366.626 139.935L352.266 144.27L352.277 144.308L352.289 144.346L366.626 139.935ZM344.113 102.132L354.574 91.381L354.29 91.1044L353.991 90.8433L344.113 102.132ZM371.298 186.234L356.355 184.923L356.345 185.044L356.336 185.165L371.298 186.234ZM358.98 233.382L372.592 239.683L372.614 239.636L372.635 239.589L358.98 233.382ZM329.247 273.733L338.981 285.146L339.168 284.987L339.349 284.821L329.247 273.733ZM295.267 295.396L301.61 308.989L301.674 308.959L301.738 308.928L295.267 295.396ZM250.667 306.015V321.015H251.167L251.665 320.982L250.667 306.015ZM239.623 305.165L234.357 319.21L235.342 319.58L236.37 319.808L239.623 305.165ZM229.429 305.165L232.683 319.808L233.216 319.69L233.74 319.533L229.429 305.165ZM217.961 306.864L211.253 293.448L211.253 293.448L217.961 306.864ZM216.687 307.289V292.289H203.98L201.891 304.823L216.687 307.289ZM211.165 339.146L196.407 336.463L196.395 336.53L196.383 336.597L211.165 339.146ZM206.493 362.507L191.877 359.134L191.815 359.404L191.762 359.675L206.493 362.507ZM206.166 364.199L191.44 361.345L187.98 379.199H206.166V364.199ZM297.682 389.199V374.199H248.619L289.294 401.635L297.682 389.199ZM279.381 389.199L287.769 401.635L328.444 374.199H279.381V389.199ZM172.075 389.199V374.199H123.013L163.687 401.635L172.075 389.199ZM153.775 389.199L162.163 401.635L202.837 374.199H153.775V389.199ZM141.667 368.849L153.335 378.276L157.148 373.557L156.608 367.514L141.667 368.849ZM142.354 353.163L157.303 354.408L157.304 354.392L157.305 354.375L142.354 353.163ZM147.451 314.51L162.247 316.976L162.247 316.976L147.451 314.51ZM157.221 264.389L142.605 261.016L142.586 261.099L142.567 261.183L157.221 264.389ZM172.512 210.445L158.532 205.008L158.411 205.318L158.305 205.633L172.512 210.445ZM180.869 184.74L195.421 188.377L197.337 180.711L192.099 174.796L180.869 184.74ZM177.731 111.286H192.731V96.2864H177.731V111.286ZM200.485 91.636L188.188 100.227L202.404 120.575L213.808 98.5271L200.485 91.636ZM203.094 90.2388V105.239H209.308L213.701 100.845L203.094 90.2388ZM207.342 87.6902L210.284 102.399L211.2 102.216L212.085 101.92L207.342 87.6902ZM212.014 85.9912L209.072 71.2825L207.722 71.5526L206.444 72.064L212.014 85.9912ZM215.837 85.1417L218.118 70.3161L215.131 69.8566L212.199 70.5895L215.837 85.1417ZM224.332 85.5664L226.454 100.416L227.22 100.306L227.97 100.119L224.332 85.5664ZM230.704 83.8674L227.066 69.3152L226.823 69.3759L226.583 69.4446L230.704 83.8674ZM237.924 82.5931L236.268 67.6849L236.268 67.6849L237.924 82.5931ZM248.119 83.4426L245.177 98.1514L253.049 99.7257L258.725 94.0493L248.119 83.4426ZM253.64 83.4426L249.33 97.81L250.006 98.0129L250.699 98.1513L253.64 83.4426ZM270.631 81.7436V66.7436H269.145L267.689 67.0349L270.631 81.7436ZM292.293 81.7436L294.518 66.9096L293.412 66.7436H292.293V81.7436ZM321.601 88.9645L316.282 102.989L316.495 103.071L316.712 103.145L321.601 88.9645ZM307.584 159.899L292.65 161.299L292.66 161.405L292.671 161.511L307.584 159.899ZM305.885 191.755L320.45 195.344L320.511 195.096L320.564 194.846L305.885 191.755ZM299.514 131.865L285.79 137.919L285.864 138.087L285.942 138.252L299.514 131.865ZM276.577 107.229L284.439 94.4541L284.367 94.4099L284.295 94.3666L276.577 107.229ZM269.781 105.105V120.105H271.023L272.247 119.901L269.781 105.105ZM265.958 103.831L276.565 93.2242L250.958 67.6183V103.831H265.958ZM265.534 106.804L279.764 111.548L279.946 111.001L280.086 110.442L265.534 106.804ZM264.684 109.778L278.914 114.521L279.097 113.974L279.236 113.416L264.684 109.778ZM263.835 111.901L250.418 105.193L248.835 108.36V111.901H263.835ZM262.985 116.998L248.342 113.744L248.189 114.435L248.101 115.138L262.985 116.998ZM261.286 124.644L246.919 120.334L246.919 120.334L261.286 124.644ZM258.738 132.714L272.968 137.458L272.968 137.458L258.738 132.714ZM256.614 139.086L242.383 134.342L242.011 135.459L241.818 136.62L256.614 139.086ZM254.915 146.307L240.443 142.36L240.273 142.985L240.157 143.623L254.915 146.307ZM252.791 156.501L267.343 160.139L267.376 160.006L267.407 159.874L252.791 156.501ZM250.242 166.27L235.771 162.323L235.6 162.949L235.484 163.587L250.242 166.27ZM249.393 173.491H234.393V174.732L234.597 175.957L249.393 173.491ZM248.968 180.287L234.259 177.345L234.132 177.984L234.06 178.631L248.968 180.287ZM247.269 188.357L232.902 184.047L232.699 184.723L232.56 185.416L247.269 188.357ZM243.022 201.95L255.502 210.27L256.02 209.493L256.438 208.658L243.022 201.95ZM240.048 210.02L225.731 205.546L225.601 205.96L225.496 206.382L240.048 210.02ZM235.801 226.161L221.329 222.214L221.245 222.523L221.174 222.836L235.801 226.161ZM231.128 246.124L245.714 249.625L245.714 249.625L231.128 246.124ZM226.456 266.088L211.829 262.763L211.757 263.083L211.698 263.404L226.456 266.088ZM223.908 281.804L238.776 283.786L238.776 283.786L223.908 281.804ZM223.483 289.025L210.066 295.733L214.212 304.025H223.483V289.025ZM235.376 284.777L229.805 270.85L229.706 270.89L229.607 270.931L235.376 284.777ZM259.162 269.911L268.579 281.587L268.691 281.496L268.801 281.403L259.162 269.911ZM285.497 240.178L297.759 248.817L297.805 248.752L297.85 248.687L285.497 240.178ZM380.985 135.6C375.775 118.339 367.005 103.476 354.574 91.381L333.653 112.883C342.176 121.176 348.415 131.515 352.266 144.27L380.985 135.6ZM386.24 187.544C387.817 169.576 386.091 152.194 380.962 135.524L352.289 144.346C356.221 157.126 357.611 170.609 356.355 184.923L386.24 187.544ZM372.635 239.589C380.395 222.517 384.991 205.068 386.26 187.302L356.336 185.165C355.34 199.115 351.723 213.098 345.324 227.174L372.635 239.589ZM339.349 284.821C353.534 271.897 364.654 256.83 372.592 239.683L345.368 227.08C339.148 240.515 330.445 252.349 319.145 262.645L339.349 284.821ZM301.738 308.928C315.777 302.214 328.235 294.312 338.981 285.146L319.513 262.321C311.004 269.579 300.808 276.119 288.795 281.864L301.738 308.928ZM251.665 320.982C270.127 319.751 286.872 315.866 301.61 308.989L288.923 281.803C278.176 286.819 265.188 290.013 249.669 291.048L251.665 320.982ZM236.37 319.808C240.531 320.733 245.511 321.015 250.667 321.015V291.015C246.195 291.015 243.813 290.73 242.877 290.522L236.37 319.808ZM234.951 318.891C234.447 318.891 234.039 318.86 233.759 318.831C233.474 318.802 233.254 318.767 233.114 318.742C232.848 318.695 232.731 318.66 232.81 318.681C232.875 318.699 233.038 318.746 233.314 318.838C233.585 318.929 233.931 319.05 234.357 319.21L244.89 291.12C243.515 290.605 242.089 290.116 240.703 289.738C239.572 289.43 237.417 288.891 234.951 288.891V318.891ZM233.74 319.533C234.997 319.155 235.825 318.937 236.306 318.825C236.545 318.77 236.582 318.769 236.468 318.787C236.405 318.797 236.253 318.82 236.031 318.841C235.821 318.862 235.445 318.891 234.951 318.891V288.891C232.687 288.891 230.579 289.359 229.561 289.594C228.202 289.907 226.693 290.326 225.119 290.798L233.74 319.533ZM222.208 321.015C225.719 321.015 229.224 320.577 232.683 319.808L226.175 290.522C224.537 290.887 223.229 291.015 222.208 291.015V321.015ZM224.669 320.281C223.132 321.049 222.079 321.015 222.208 321.015V291.015C218.94 291.015 215.055 291.547 211.253 293.448L224.669 320.281ZM216.687 322.289C220.792 322.289 223.985 320.623 224.669 320.281L211.253 293.448C211.367 293.391 211.801 293.177 212.474 292.953C212.824 292.836 213.338 292.683 213.984 292.554C214.614 292.428 215.544 292.289 216.687 292.289V322.289ZM225.923 341.829C227.638 332.396 229.491 321.702 231.483 309.755L201.891 304.823C199.918 316.662 198.09 327.206 196.407 336.463L225.923 341.829ZM221.108 365.88C222.876 358.219 224.488 350.155 225.947 341.694L196.383 336.597C195.01 344.561 193.507 352.071 191.877 359.134L221.108 365.88ZM220.892 367.053C221 366.497 221.11 365.926 221.223 365.34L191.762 359.675C191.652 360.248 191.545 360.805 191.44 361.345L220.892 367.053ZM300.364 349.199H206.166V379.199H300.364V349.199ZM327.864 376.699C327.864 361.511 315.552 349.199 300.364 349.199V379.199C298.983 379.199 297.864 378.08 297.864 376.699H327.864ZM300.364 404.199C315.552 404.199 327.864 391.887 327.864 376.699H297.864C297.864 375.318 298.983 374.199 300.364 374.199V404.199ZM297.682 404.199H300.364V374.199H297.682V404.199ZM289.294 401.635C289.7 401.909 289.915 402.327 289.915 402.791H319.915C319.915 391.936 314.391 382.376 306.07 376.764L289.294 401.635ZM289.915 402.791C289.915 403.555 289.296 404.175 288.532 404.175V434.175C305.864 434.175 319.915 420.124 319.915 402.791H289.915ZM288.532 404.175C287.767 404.175 287.148 403.555 287.148 402.791H257.148C257.148 420.124 271.199 434.175 288.532 434.175V404.175ZM287.148 402.791C287.148 402.327 287.363 401.909 287.769 401.635L270.993 376.764C262.672 382.376 257.148 391.936 257.148 402.791H287.148ZM172.075 404.199H279.381V374.199H172.075V404.199ZM194.308 402.791C194.308 391.936 188.784 382.376 180.463 376.764L163.687 401.635C164.093 401.909 164.308 402.327 164.308 402.791H194.308ZM162.925 434.175C180.257 434.175 194.308 420.124 194.308 402.791H164.308C164.308 403.555 163.689 404.175 162.925 404.175V434.175ZM131.541 402.791C131.541 420.124 145.592 434.175 162.925 434.175V404.175C162.161 404.175 161.541 403.555 161.541 402.791H131.541ZM145.387 376.764C137.065 382.376 131.541 391.936 131.541 402.791H161.541C161.541 402.327 161.756 401.909 162.163 401.635L145.387 376.764ZM151.396 404.199H153.775V374.199H151.396V404.199ZM123.896 376.699C123.896 391.887 136.208 404.199 151.396 404.199V374.199C152.776 374.199 153.896 375.318 153.896 376.699H123.896ZM129.999 359.423C126.188 364.14 123.896 370.172 123.896 376.699H153.896C153.896 377.279 153.679 377.85 153.335 378.276L129.999 359.423ZM127.406 351.917C126.762 359.651 126.375 366.25 126.727 370.184L156.608 367.514C156.611 367.552 156.588 367.279 156.59 366.552C156.591 365.869 156.613 364.958 156.664 363.789C156.767 361.446 156.975 358.337 157.303 354.408L127.406 351.917ZM132.656 312.044C130.067 327.576 128.299 340.907 127.403 351.95L157.305 354.375C158.109 344.463 159.739 332.027 162.247 316.976L132.656 312.044ZM142.567 261.183C138.559 279.506 135.252 296.463 132.656 312.044L162.247 316.976C164.748 301.975 167.954 285.518 171.874 267.594L142.567 261.183ZM158.305 205.633C152.195 223.671 146.963 242.133 142.605 261.016L171.837 267.762C175.974 249.833 180.936 232.332 186.719 215.257L158.305 205.633ZM166.317 181.103C164.533 188.238 161.958 196.198 158.532 205.008L186.492 215.881C190.277 206.149 193.273 196.972 195.421 188.377L166.317 181.103ZM162.731 176.456C162.731 183.437 165.351 189.841 169.639 194.684L192.099 174.796C192.481 175.227 192.731 175.831 192.731 176.456H162.731ZM162.731 111.286V176.456H192.731V111.286H162.731ZM135.619 126.286H177.731V96.2864H135.619V126.286ZM108.119 98.7864C108.119 113.974 120.431 126.286 135.619 126.286V96.2864C137 96.2864 138.119 97.4057 138.119 98.7864H108.119ZM135.619 71.2864C120.431 71.2864 108.119 83.5986 108.119 98.7864H138.119C138.119 100.167 137 101.286 135.619 101.286V71.2864ZM190.231 71.2864H135.619V101.286H190.231V71.2864ZM212.781 83.0454C207.836 75.967 199.581 71.2864 190.231 71.2864V101.286C189.369 101.286 188.615 100.837 188.188 100.227L212.781 83.0454ZM203.094 75.2388C197.578 75.2388 190.786 77.7377 187.161 84.7449L213.808 98.5271C212.748 100.576 210.989 102.522 208.579 103.812C206.318 105.022 204.273 105.239 203.094 105.239V75.2388ZM204.4 72.9815C199.158 74.0301 195.215 76.905 192.488 79.6322L213.701 100.845C213.806 100.741 212.695 101.917 210.284 102.399L204.4 72.9815ZM206.444 72.064C205.343 72.5044 204.066 72.971 202.599 73.4599L212.085 101.92C214.017 101.277 215.854 100.611 217.585 99.9184L206.444 72.064ZM212.199 70.5895C211.344 70.8034 210.307 71.0356 209.072 71.2825L214.956 100.7C216.553 100.38 218.065 100.046 219.475 99.6938L212.199 70.5895ZM222.211 70.7172C222.471 70.68 222.289 70.7322 221.471 70.6913C220.698 70.6527 219.598 70.5438 218.118 70.3161L213.556 99.9672C217.671 100.6 222.253 101.016 226.454 100.416L222.211 70.7172ZM226.583 69.4446C224.78 69.9596 222.819 70.4832 220.694 71.0143L227.97 100.119C230.377 99.517 232.663 98.9079 234.825 98.2902L226.583 69.4446ZM236.268 67.6849C233.116 68.0351 230.043 68.571 227.066 69.3152L234.342 98.4195C235.895 98.0311 237.636 97.7175 239.581 97.5014L236.268 67.6849ZM251.06 68.7339C246.19 67.7598 241.048 67.1538 236.268 67.6849L239.581 97.5014C239.898 97.4661 241.552 97.4265 245.177 98.1514L251.06 68.7339ZM257.951 69.0752C255.874 68.4522 253.126 67.8055 250.136 67.8055C247.312 67.8055 241.938 68.4101 237.512 72.8359L258.725 94.0493C255.149 97.6257 251.12 97.8055 250.136 97.8055C248.987 97.8055 248.575 97.5836 249.33 97.81L257.951 69.0752ZM267.689 67.0349C263.701 67.8324 260.684 68.3006 258.519 68.5171C257.444 68.6246 256.724 68.655 256.295 68.655C255.806 68.655 255.985 68.6145 256.582 68.7339L250.699 98.1513C254.384 98.8884 258.335 98.6851 261.504 98.3682C265.003 98.0183 269.065 97.3538 273.572 96.4523L267.689 67.0349ZM292.293 66.7436H270.631V96.7436H292.293V66.7436ZM326.921 74.9395C317.461 71.3511 306.603 68.7222 294.518 66.9096L290.068 96.5777C300.638 98.1631 309.318 100.348 316.282 102.989L326.921 74.9395ZM353.991 90.8433C345.794 83.6708 336.61 78.273 326.491 74.7839L316.712 103.145C323.017 105.319 328.841 108.7 334.236 113.421L353.991 90.8433ZM292.671 161.511C293.627 170.351 293.161 179.382 291.207 188.665L320.564 194.846C323.14 182.607 323.807 170.401 322.498 158.286L292.671 161.511ZM285.942 138.252C289.856 146.569 291.987 154.231 292.65 161.299L322.519 158.499C321.483 147.444 318.234 136.416 313.086 125.478L285.942 138.252ZM268.716 120.004C277.777 125.58 283.03 131.662 285.79 137.919L313.238 125.81C307.503 112.812 297.465 102.47 284.439 94.4541L268.716 120.004ZM272.247 119.901C270.071 120.264 268.59 119.838 268.28 119.741C267.933 119.633 268.099 119.635 268.86 120.091L284.295 94.3666C280.837 92.2919 274.569 89.1003 267.315 90.3093L272.247 119.901ZM255.352 114.438C260.007 119.092 265.77 120.105 269.781 120.105V90.1052C270.394 90.1052 273.609 90.2686 276.565 93.2242L255.352 114.438ZM280.086 110.442C280.564 108.529 280.958 106.267 280.958 103.831H250.958C250.958 103.434 250.991 103.177 251.003 103.09C251.016 103 251.018 103.02 250.981 103.166L280.086 110.442ZM279.236 113.416C279.452 112.551 279.632 111.943 279.764 111.548L251.303 102.061C250.869 103.364 250.482 104.739 250.132 106.139L279.236 113.416ZM277.251 118.61C277.952 117.209 278.491 115.792 278.914 114.521L250.454 105.034C250.39 105.227 250.348 105.336 250.332 105.375C250.325 105.393 250.327 105.386 250.34 105.358C250.352 105.33 250.378 105.274 250.418 105.193L277.251 118.61ZM277.628 120.252C278.126 118.01 278.835 114.682 278.835 111.901H248.835C248.835 111.604 248.846 111.383 248.855 111.262C248.863 111.136 248.871 111.059 248.873 111.041C248.876 111.015 248.866 111.106 248.826 111.347C248.745 111.835 248.594 112.613 248.342 113.744L277.628 120.252ZM275.653 128.954C276.677 125.542 277.457 122.154 277.869 118.859L248.101 115.138C247.946 116.373 247.594 118.083 246.919 120.334L275.653 128.954ZM272.968 137.458C273.87 134.752 274.765 131.917 275.653 128.954L246.919 120.334C246.108 123.035 245.304 125.58 244.507 127.971L272.968 137.458ZM270.844 143.829L272.968 137.458L244.507 127.971L242.383 134.342L270.844 143.829ZM269.386 150.253C270.275 146.993 271 144.007 271.41 141.552L241.818 136.62C241.661 137.562 241.253 139.39 240.443 142.36L269.386 150.253ZM267.407 159.874C268.299 156.006 269.057 152.375 269.673 148.99L240.157 143.623C239.639 146.468 238.982 149.633 238.175 153.128L267.407 159.874ZM264.714 170.217C265.594 166.991 266.47 163.631 267.343 160.139L238.239 152.863C237.413 156.166 236.59 159.319 235.771 162.323L264.714 170.217ZM264.393 173.491C264.393 173.155 264.483 171.801 265 168.953L235.484 163.587C234.869 166.969 234.393 170.429 234.393 173.491H264.393ZM263.677 183.229C264.392 179.654 264.906 175.328 264.189 171.025L234.597 175.957C234.503 175.393 234.549 175.196 234.528 175.529C234.509 175.835 234.444 176.423 234.259 177.345L263.677 183.229ZM261.636 192.668C262.707 189.098 263.48 185.515 263.876 181.943L234.06 178.631C233.89 180.156 233.53 181.954 232.902 184.047L261.636 192.668ZM259.376 201.171C260.436 197.991 261.298 194.696 261.978 191.299L232.56 185.416C232.107 187.682 231.554 189.768 230.915 191.684L259.376 201.171ZM256.438 208.658C257.509 206.515 258.492 203.82 259.376 201.171L230.915 191.684C230.538 192.814 230.226 193.687 229.977 194.335C229.712 195.023 229.589 195.274 229.605 195.241L256.438 208.658ZM254.365 214.494C255.04 212.335 255.557 210.798 255.929 209.79C256.115 209.283 256.22 209.035 256.247 208.973C256.259 208.946 256.22 209.036 256.133 209.206C256.06 209.348 255.851 209.748 255.502 210.27L230.541 193.629C229.128 195.748 228.199 198.278 227.778 199.419C227.159 201.101 226.472 203.174 225.731 205.546L254.365 214.494ZM250.272 230.107C251.989 223.811 253.434 218.322 254.6 213.658L225.496 206.382C224.397 210.779 223.01 216.051 221.329 222.214L250.272 230.107ZM245.714 249.625C247.425 242.495 248.997 235.781 250.428 229.485L221.174 222.836C219.773 229 218.229 235.595 216.543 242.624L245.714 249.625ZM241.083 269.412C242.484 263.249 244.027 256.653 245.714 249.625L216.543 242.624C214.831 249.754 213.26 256.467 211.829 262.763L241.083 269.412ZM238.776 283.786C239.3 279.855 240.106 274.866 241.214 268.771L211.698 263.404C210.541 269.769 209.648 275.258 209.039 279.821L238.776 283.786ZM236.899 282.316C237.392 283.303 237.679 284.159 237.845 284.734C238.017 285.329 238.118 285.828 238.178 286.177C238.295 286.852 238.324 287.349 238.333 287.541C238.351 287.923 238.33 288.028 238.351 287.675C238.389 287.018 238.51 285.778 238.776 283.786L209.039 279.821C208.738 282.077 208.505 284.164 208.402 285.914C208.352 286.765 208.313 287.843 208.367 288.968C208.385 289.346 208.443 292.486 210.066 295.733L236.899 282.316ZM229.607 270.931C226.3 272.309 223.884 273.257 222.261 273.837C221.436 274.131 220.998 274.265 220.849 274.306C220.775 274.327 220.916 274.284 221.208 274.228C221.39 274.193 222.26 274.025 223.483 274.025V304.025C226.003 304.025 228.205 303.399 228.878 303.212C230.003 302.899 231.193 302.502 232.351 302.089C234.691 301.253 237.656 300.077 241.145 298.623L229.607 270.931ZM249.746 258.234C241.629 264.78 235.005 268.77 229.805 270.85L240.947 298.704C249.905 295.121 259.139 289.2 268.579 281.587L249.746 258.234ZM273.235 231.538C264.974 243.263 257.042 252.111 249.523 258.418L268.801 281.403C278.839 272.985 288.464 262.011 297.759 248.817L273.235 231.538ZM291.321 188.167C286.817 206.447 280.637 220.792 273.145 231.668L297.85 248.687C307.914 234.078 315.326 216.141 320.45 195.344L291.321 188.167Z" fill="#F4F4F4" mask="url(#path-3-outside-1_0_1)"/>
<defs>
<linearGradient id="paint0_linear_0_1" x1="410.801" y1="67.9611" x2="95.267" y2="451.456" gradientUnits="userSpaceOnUse">
<stop stop-color="#FA923C"/>
<stop offset="0.44243" stop-color="#F97304"/>
<stop offset="1" stop-color="#E3520C"/>
</linearGradient>
</defs>
</svg>
